<svg width="32" height="41" viewBox="0 0 32 41" fill="none" xmlns="http://www.w3.org/2000/svg">
<g clip-path="url(#clip0_291_161)">
<path d="M17.465 24.1173C18.211 23.3665 18.211 22.1517 17.465 21.4009L14.672 18.6251H22.062C23.133 18.6251 24 17.7525 24 16.6756V16.5498C24 15.4729 23.133 14.6003 22.062 14.6003H14.699L17.465 11.8487C18.211 11.0979 18.211 9.88309 17.465 9.13228C16.711 8.38549 15.492 8.38147 14.738 9.13228L8.582 15.2696C7.836 16.0164 7.836 17.2352 8.582 17.985L14.738 24.1183C15.492 24.8682 16.711 24.8682 17.465 24.1173Z" fill="black"/>
<path fill-rule="evenodd" clip-rule="evenodd" d="M0 16.6132C0 7.72124 7.164 0.51001 16 0.51001C24.836 0.51001 32 7.72023 32 16.6132C32 25.5062 24.836 32.7165 16 32.7165C7.164 32.7165 0 25.5052 0 16.6132ZM17.465 21.4009C18.211 22.1517 18.211 23.3665 17.465 24.1173C16.711 24.8682 15.492 24.8682 14.738 24.1183L8.582 17.985C7.836 17.2352 7.836 16.0164 8.582 15.2696L14.738 9.13228C15.492 8.38147 16.711 8.38549 17.465 9.13228C18.211 9.88309 18.211 11.0979 17.465 11.8487L14.699 14.6003H22.062C23.133 14.6003 24 15.4729 24 16.5498V16.6756C24 17.7525 23.133 18.6251 22.062 18.6251H14.672L17.465 21.4009Z" fill="white"/>
</g>
<defs>
<clipPath id="clip0_291_161">
<rect width="32" height="40.2581" fill="white" transform="matrix(-1 0 0 1 32 0.51001)"/>
</clipPath>
</defs>
</svg>
