<svg width="32" height="41" viewBox="0 0 32 41" fill="none" xmlns="http://www.w3.org/2000/svg">
<g clip-path="url(#clip0_291_162)">
<path d="M14.535 24.1173C13.789 23.3665 13.789 22.1517 14.535 21.4009L17.328 18.6251H9.938C8.867 18.6251 8 17.7525 8 16.6756V16.5498C8 15.4729 8.867 14.6003 9.938 14.6003H17.301L14.535 11.8487C13.789 11.0979 13.789 9.88309 14.535 9.13228C15.289 8.38549 16.508 8.38147 17.262 9.13228L23.418 15.2696C24.164 16.0164 24.164 17.2352 23.418 17.985L17.262 24.1183C16.508 24.8682 15.289 24.8682 14.535 24.1173Z" fill="black"/>
<path fill-rule="evenodd" clip-rule="evenodd" d="M32 16.6132C32 7.72124 24.836 0.51001 16 0.51001C7.164 0.51001 0 7.72023 0 16.6132C0 25.5062 7.164 32.7165 16 32.7165C24.836 32.7165 32 25.5052 32 16.6132ZM14.535 21.4009C13.789 22.1517 13.789 23.3665 14.535 24.1173C15.289 24.8682 16.508 24.8682 17.262 24.1183L23.418 17.985C24.164 17.2352 24.164 16.0164 23.418 15.2696L17.262 9.13228C16.508 8.38147 15.289 8.38549 14.535 9.13228C13.789 9.88309 13.789 11.0979 14.535 11.8487L17.301 14.6003H9.938C8.867 14.6003 8 15.4729 8 16.5498V16.6756C8 17.7525 8.867 18.6251 9.938 18.6251H17.328L14.535 21.4009Z" fill="white"/>
</g>
<defs>
<clipPath id="clip0_291_162">
<rect width="32" height="40.2581" fill="white" transform="translate(0 0.51001)"/>
</clipPath>
</defs>
</svg>
