<svg width="37" height="26" viewBox="0 0 37 26" fill="none" xmlns="http://www.w3.org/2000/svg">
<path d="M36.2104 3.99102C35.7839 2.41719 34.5313 1.18203 32.9401 0.763672C30.0557 0 18.4911 0 18.4911 0C18.4911 0 6.92656 0 4.04219 0.763672C2.45104 1.18203 1.19844 2.41719 0.771875 3.99102C0 6.83984 0 12.7766 0 12.7766C0 12.7766 0 18.7133 0.771875 21.5621C1.19844 23.1359 2.45104 24.318 4.04219 24.7363C6.92656 25.5 18.4911 25.5 18.4911 25.5C18.4911 25.5 30.0557 25.5 32.9401 24.7363C34.5313 24.318 35.7839 23.1293 36.2104 21.5621C36.9823 18.7133 36.9823 12.7766 36.9823 12.7766C36.9823 12.7766 36.9823 6.83984 36.2104 3.99102ZM14.713 18.1688V7.38437L24.375 12.7766L14.713 18.1688Z" fill="#FF0000"/>
</svg>
